<svg id="svg" version="1.1" xmlns="http://www.w3.org/2000/svg" viewBox="0 0 2586 884" style="display: block;"><path d="M0 0 C853.38 0 1706.76 0 2586 0 C2586 291.72 2586 583.44 2586 884 C1732.62 884 879.24 884 0 884 C0 592.28 0 300.56 0 0 Z " transform="translate(0,0)" style="fill: #FEFEFF;"/><path d="M0 0 C31.845 -0.061875 63.69 -0.12375 96.5 -0.1875 C106.53470703 -0.21481201 116.56941406 -0.24212402 126.90820312 -0.27026367 C139.21386719 -0.28381348 139.21386719 -0.28381348 144.98474121 -0.28633118 C148.993256 -0.28911274 153.00165016 -0.30030151 157.01013184 -0.31672668 C162.14000075 -0.33746498 167.2696969 -0.34344396 172.39960384 -0.33921683 C174.27176859 -0.34009938 176.14394003 -0.34595225 178.01606846 -0.35764539 C203.86167713 -0.51143751 229.08265584 5.12338864 248.1015625 23.84375 C256.05804511 32.17860519 261.74541749 41.97250502 265 53 C265.56096477 54.56305183 266.12339851 56.12557747 266.6875 57.6875 C269.16475774 64.59337492 269.14808351 71.95893549 269.14044189 79.2064209 C269.14489858 80.5473127 269.14489858 80.5473127 269.1494453 81.91529322 C269.15807662 84.89340826 269.15963582 87.87148284 269.16113281 90.84960938 C269.165765 92.99229009 269.1707902 95.13496998 269.17617798 97.27764893 C269.18926704 103.08798124 269.19574034 108.89830202 269.20018864 114.70864677 C269.20312556 118.34444711 269.20723158 121.98024433 269.21169281 125.61604309 C269.22535976 137.00810655 269.23502983 148.40016285 269.2388947 159.79223394 C269.24337085 172.9115967 269.26090162 186.03085504 269.2898953 199.15018606 C269.31156564 209.31102506 269.32160187 219.47183479 269.32293582 229.63269663 C269.32398019 235.69175139 269.32980923 241.75070788 269.34775543 247.80973816 C269.36432841 253.51597948 269.3663471 259.22204965 269.35761642 264.92830658 C269.35685092 267.01147167 269.36112382 269.09464632 269.37107468 271.17778778 C269.48860798 297.33695678 264.68656875 318.75572819 246.1875 338.25 C241.2584579 343.02004074 235.96240559 346.6405177 230 350 C229.31164063 350.38800781 228.62328125 350.77601563 227.9140625 351.17578125 C225.97067539 352.20300015 224.01457397 353.12077417 222 354 C221.22785156 354.33773438 220.45570313 354.67546875 219.66015625 355.0234375 C205.01039794 360.88334082 189.81593174 361.43845026 174.26147461 361.34057617 C172.3170171 361.33965466 170.3725586 361.3400619 168.42810154 361.34167194 C163.27421742 361.34234244 158.1205471 361.32509945 152.96671295 361.30384064 C148.11033031 361.28661098 143.25399668 361.28594348 138.39758301 361.28381348 C124.24419427 361.26814255 110.09084434 361.22625874 95.9375 361.1875 C48.4484375 361.0946875 48.4484375 361.0946875 0 361 C0 241.87 0 122.74 0 0 Z " transform="translate(2208,255)" style="fill: #A974FF;"/><path d="M0 0 C0.96357422 0.58152832 1.92714844 1.16305664 2.91992188 1.76220703 C7.4858676 4.52400304 12.04758882 7.29255872 16.60205078 10.07324219 C25.7323828 15.64515266 34.91719423 21.11975714 44.125 26.5625 C55.21882632 33.12219295 66.23297596 39.79484898 77.19238281 46.57666016 C83.53122776 50.49509276 89.90513217 54.33533902 96.34521484 58.08447266 C102.96827383 61.95226336 109.51338421 65.94621506 116.0625 69.9375 C126.33366652 76.19582959 136.64925894 82.37423288 147 88.5 C159.61080355 95.96433974 172.15567427 103.53066647 184.671875 111.15234375 C190.10109422 114.45768483 195.54514185 117.7371867 201 121 C207.59579425 124.94526212 214.17000681 128.92453611 220.734375 132.921875 C232.11506294 139.85201459 243.53371869 146.71234386 255 153.5 C265.11569533 159.48911703 275.20643657 165.51560108 285.25 171.625 C286.10511673 172.14512161 286.10511673 172.14512161 286.97750854 172.67575073 C290.98636428 175.11493923 294.99328859 177.55729138 299 180 C303.68613347 182.85641456 308.37334874 185.71104186 313.0625 188.5625 C313.93171082 189.0911264 313.93171082 189.0911264 314.81848145 189.63043213 C324.45816623 195.48949954 334.1521987 201.25300199 343.86669922 206.98730469 C352.42461975 212.04645481 360.92835147 217.19131533 369.41629028 222.36657715 C379.04630285 228.2358155 388.73068039 234.00881671 398.4375 239.75 C408.34337064 245.60894217 418.19702501 251.53457061 427.95556641 257.63720703 C433.18580292 260.90202777 438.47411272 264.04093741 443.8125 267.125 C468.33897922 281.40173684 487.85480663 299.33995196 495.60986328 327.59716797 C499.21673064 343.02780755 498.51459998 360.15578169 493 375 C492.63777344 376.02738281 492.27554688 377.05476563 491.90234375 378.11328125 C482.29727784 403.2166908 463.79328393 417.34431471 441.375 430.375 C439.2286488 431.63373955 437.08384462 432.8950876 434.93908691 434.15653992 C433.53714477 434.98085839 432.13472649 435.80436768 430.73181152 436.62702942 C425.53657288 439.67484048 420.37811946 442.77789371 415.25 445.9375 C409.39710933 449.53780687 403.52200679 453.09736825 397.625 456.625 C390.23212578 461.04767829 382.86524903 465.5115072 375.50750732 469.99237061 C364.71270605 476.56522182 353.87586797 483.06217911 343 489.5 C331.65347891 496.21658255 320.35447578 503.00544913 309.0925293 509.86279297 C296.41189807 517.58339806 283.67438947 525.20831896 270.93652344 532.83398438 C259.66229528 539.58489032 248.40159524 546.35628128 237.17764282 553.19049072 C226.49224509 559.69643833 215.76540477 566.12729269 205 572.5 C194.92373187 578.46491041 184.87586945 584.47195719 174.875 590.5625 C165.20729814 596.45002915 155.52128377 602.30542913 145.8125 608.125 C144.86769775 608.69142212 144.86769775 608.69142212 143.90380859 609.26928711 C138.50345897 612.50658228 133.10173074 615.74157356 127.69970703 618.97607422 C124.59109814 620.83759422 121.48287688 622.69975815 118.375 624.5625 C117.36550293 625.16755371 116.35600586 625.77260742 115.31591797 626.39599609 C108.25481253 630.63355786 101.21512292 634.90565625 94.18130493 639.18829346 C93.6058493 639.53865662 93.03039368 639.88901978 92.4375 640.25 C91.86260834 640.60004089 91.28771667 640.95008179 90.69540405 641.31072998 C83.79165499 645.51190315 76.87160585 649.68386566 69.921875 653.80859375 C69.24297211 654.21159195 68.56406921 654.61459015 67.86459351 655.02980042 C64.45151377 657.05391367 61.03506876 659.07208588 57.61376953 661.08227539 C51.4392346 664.71736931 45.32196631 668.3970406 39.3203125 672.3125 C38.29719971 672.97032471 37.27408691 673.62814941 36.2199707 674.3059082 C34.36111913 675.50887815 32.51668719 676.73462594 30.69213867 677.98901367 C23.28754288 682.74557026 16.10087301 683.24186074 7.51367188 681.49389648 C0.85211208 679.59428503 -2.5107201 674.53177583 -5.875 668.8125 C-7.63610692 662.84430431 -8.35469351 656.60649516 -6.12109375 650.66015625 C-0.94040773 641.75211197 8.11982265 636.895591 16.74639893 631.82785034 C19.42072148 630.25674996 22.08604722 628.67064439 24.7522583 627.08583069 C26.13292606 626.26547872 27.51407387 625.44593418 28.89569092 624.62718201 C35.66850207 620.61256019 42.39999224 616.531528 49.125 612.4375 C50.2820965 611.73388804 51.43924181 611.03035633 52.59643555 610.3269043 C54.90858164 608.92125283 57.22048972 607.51521113 59.53222656 606.10888672 C64.76877642 602.92374023 70.00851786 599.74385009 75.24798584 596.56350708 C78.1654514 594.79254806 81.08271561 593.02125744 84 591.25 C85.1666657 590.54166507 86.33333237 589.83333174 87.5 589.125 C88.0775 588.774375 88.655 588.42375 89.25 588.0625 C206.49999993 516.87500004 206.49999993 516.87500004 208.24987793 515.81257629 C209.41695408 515.10399289 210.58402764 514.39540525 211.75109863 513.68681335 C214.66147916 511.91977124 217.57190397 510.15280216 220.48242188 508.38598633 C225.80749795 505.15332415 231.13219733 501.92004793 236.45532227 498.68417358 C248.06996893 491.6237993 259.68951692 484.57276138 271.35229492 477.59204102 C288.05193252 467.58647236 304.660353 457.42766383 321.28759766 447.30249023 C332.32509077 440.58215034 343.37257371 433.87826566 354.41943359 427.17333984 C357.95297362 425.0286071 361.48629061 422.88350716 365.01953125 420.73828125 C365.59602417 420.3882605 366.17251709 420.03823975 366.76647949 419.6776123 C368.51099021 418.61841459 370.25549608 417.5592089 372 416.5 C384.51649475 408.90037101 384.51649475 408.90037101 389.58056641 405.82666016 C390.1737265 405.46661896 390.7668866 405.10657776 391.37802124 404.73562622 C392.57523877 404.00901198 393.7725246 403.28251026 394.96987915 402.55612183 C397.91760799 400.76759129 400.86402932 398.97697947 403.80761719 397.18164062 C409.37590664 393.78803896 414.95942575 390.42654339 420.58984375 387.13671875 C421.63035889 386.52207764 422.67087402 385.90743652 423.74291992 385.27416992 C425.66911471 384.13771969 427.60232683 383.01303057 429.54418945 381.90356445 C438.70890479 376.46331858 445.38085377 369.4307986 449.1484375 359.37109375 C451.62326511 349.57395507 450.86179427 340.23008318 446.875 330.94140625 C440.99279673 321.71369987 433.61839165 316.40560134 424.25 311 C423.01896248 310.27378679 421.7889192 309.54588588 420.55981445 308.81640625 C418.00341006 307.30084 415.44289831 305.79258614 412.87939453 304.2890625 C407.21034026 300.95514114 401.60099187 297.52321108 395.98718262 294.09741211 C388.50837917 289.53698051 381.01660836 284.99785541 373.5 280.5 C362.87023912 274.13926852 352.29556085 267.68695481 341.70947266 261.25390625 C336.38622935 258.01919567 331.06154134 254.78686502 325.73690796 251.55444336 C322.824541 249.78640149 319.91227585 248.01819194 317 246.25 C315.83333382 245.54166587 314.66666715 244.83333254 313.5 244.125 C301.83333333 237.04166667 290.16666667 229.95833333 278.5 222.875 C277.92254028 222.52440018 277.34508057 222.17380035 276.75012207 221.81257629 C275.58304592 221.10399289 274.41597236 220.39540525 273.24890137 219.68681335 C270.33852084 217.91977124 267.42809603 216.15280216 264.51757812 214.38598633 C259.19250205 211.15332415 253.86780267 207.92004793 248.54467773 204.68417358 C232.29477195 194.80496588 232.29477195 194.80496588 216 185 C204.51013114 178.12269626 193.0713634 171.16132155 181.62890625 164.20556641 C175.75409768 160.63458504 169.87690262 157.06753358 164 153.5 C161.68356848 152.09379163 159.36716131 150.68754314 157.05078125 149.28125 C156.47592484 148.93225143 155.90106842 148.58325287 155.30879211 148.22367859 C151.67751146 146.0189465 148.04676375 143.81333916 144.41635132 141.60717773 C129.47871702 132.51957642 129.47871702 132.51957642 114.5 123.5 C103.87023912 117.13926852 93.29556085 110.68695481 82.70947266 104.25390625 C77.38622935 101.01919567 72.06154134 97.78686502 66.73690796 94.55444336 C63.824541 92.78640149 60.91227585 91.01819194 58 89.25 C56.83333382 88.54166587 55.66666715 87.83333254 54.5 87.125 C42.83333333 80.04166667 31.16666667 72.95833333 19.5 65.875 C18.92259064 65.52444046 18.34518127 65.17388092 17.75027466 64.81269836 C16.58265508 64.10376539 15.41507293 63.39477076 14.24752808 62.68571472 C11.34574353 60.92355049 8.4433337 59.16243399 5.53955078 57.40356445 C0.11120445 54.11402119 -5.31029917 50.81453128 -10.71075439 47.4793396 C-13.23818924 45.9193061 -15.76910574 44.36497092 -18.30029297 42.81103516 C-19.49604866 42.07476707 -20.69012764 41.33576732 -21.88232422 40.59375 C-36.64184372 31.40967381 -50.02942502 26.22254459 -67.55859375 30.24609375 C-80.49463062 34.24074194 -87.82560233 41.92062809 -94.35322142 53.37446004 C-99.171951 63.24090727 -98.68591388 72.9483683 -98.60559082 83.6681366 C-98.60832427 85.7674815 -98.6132679 87.86682448 -98.62022066 89.96615964 C-98.63298966 95.71383902 -98.6148305 101.46106377 -98.59157586 107.20869482 C-98.57199043 113.41526414 -98.58142974 119.62179667 -98.58750916 125.8283844 C-98.59429731 136.57672394 -98.58351623 147.32489337 -98.5610199 158.07320213 C-98.5287776 173.6231444 -98.52938169 189.17296417 -98.53866035 204.72293083 C-98.54294313 211.97368218 -98.5456254 219.22443412 -98.54788971 226.47518635 C-98.54823241 227.56380479 -98.54823241 227.56380479 -98.54858204 228.67441552 C-98.55364334 245.93358543 -98.54302904 263.19274007 -98.52978516 280.4519043 C-98.52921177 281.20671292 -98.52863839 281.96152154 -98.52804763 282.73920315 C-98.51930476 294.22196928 -98.50974359 305.70473468 -98.5 317.1875 C-98.48961141 329.43806932 -98.47951526 341.68863878 -98.47021484 353.93920898 C-98.46963595 354.6940635 -98.46905706 355.44891802 -98.46846063 356.22664692 C-98.45532731 373.4628318 -98.44668361 390.69900308 -98.45211029 407.93519306 C-98.45233657 408.65969335 -98.45256284 409.38419364 -98.45279598 410.13064849 C-98.45515751 417.36370228 -98.45830375 424.5967553 -98.4626212 431.8298082 C-98.47171936 447.3627325 -98.46709052 462.89548029 -98.4346032 478.42837675 C-98.4111366 489.74791784 -98.40512651 501.06732894 -98.41622889 512.38689991 C-98.42160363 518.51869036 -98.41865713 524.6501915 -98.39388847 530.78194046 C-98.37134431 536.39442441 -98.37173329 542.00642095 -98.39037412 547.61891488 C-98.39302262 549.64966596 -98.38718466 551.68044945 -98.37202317 553.71114566 C-98.22950226 573.98853626 -98.22950226 573.98853626 -105.77204847 581.84604615 C-110.76371642 586.6159293 -115.5363571 588.07357221 -122.375 588.375 C-128.65937904 588.23004146 -133.112736 586.71009098 -137.71875 582.38671875 C-143.35564902 576.15573479 -145.45030437 570.63043699 -145.38031673 562.32872295 C-145.38497665 561.46413408 -145.38963657 560.5995452 -145.3944377 559.70875666 C-145.40641525 556.80346136 -145.39698147 553.89863134 -145.38768005 550.99333191 C-145.39185181 548.89249347 -145.39732845 546.79165728 -145.40399987 544.69082528 C-145.41849503 538.9109529 -145.41419693 533.13122262 -145.40683305 527.35134232 C-145.40211347 521.11996683 -145.41460083 514.88862263 -145.42485046 508.65725708 C-145.44107447 497.15053013 -145.44347793 485.64386631 -145.43854547 474.1371333 C-145.4339884 463.50064503 -145.43458727 452.86417365 -145.44038582 442.22768593 C-145.44114269 440.80093001 -145.44189867 439.37417408 -145.44265376 437.94741816 C-145.44379897 435.7973526 -145.44494885 433.64728706 -145.44611301 431.49722151 C-145.45682125 411.5013593 -145.46154043 391.50550272 -145.45364285 371.50963879 C-145.45334567 370.755622 -145.4530485 370.00160522 -145.45274232 369.22473945 C-145.45029341 363.10168807 -145.44768181 356.97863677 -145.44505819 350.85558546 C-145.43496578 326.99557514 -145.44329069 303.13563526 -145.46655273 279.27563477 C-145.49265327 252.46085426 -145.50546495 225.64611617 -145.49836498 198.83132249 C-145.49764895 195.9689775 -145.49697456 193.1066325 -145.49632454 190.24428749 C-145.49615473 189.53952279 -145.49598492 188.83475809 -145.49580997 188.10863688 C-145.49351091 177.48878714 -145.5014656 166.86897686 -145.51461601 156.24913597 C-145.52956015 144.15928064 -145.52995461 132.06954246 -145.5125451 119.97968092 C-145.50404298 113.81458531 -145.50186626 107.64966545 -145.51719666 101.48457909 C-145.53107799 95.83200571 -145.526236 90.17975806 -145.50695742 84.52720336 C-145.50320753 82.49075549 -145.50608993 80.45428131 -145.51656907 78.41785695 C-145.64680371 51.15320955 -138.04685712 27.49616001 -118.7421875 7.6796875 C-106.67073997 -4.11662733 -93.12926426 -11.47794748 -77 -16 C-76.16339844 -16.24621094 -75.32679688 -16.49242188 -74.46484375 -16.74609375 C-48.36061126 -23.2385701 -22.01513868 -13.29256517 0 0 Z " transform="translate(246,87)" style="fill: #A974FF;"/><path d="M0 0 C46.6846875 -0.0928125 46.6846875 -0.0928125 94.3125 -0.1875 C109.01035034 -0.22846802 109.01035034 -0.22846802 124.00512695 -0.27026367 C136.04333496 -0.28381348 136.04333496 -0.28381348 141.69303894 -0.28633118 C145.60809004 -0.28910696 149.523017 -0.30027216 153.43803406 -0.31672668 C158.45435991 -0.3375259 163.47050901 -0.34343303 168.48687398 -0.33921683 C170.3138209 -0.34009657 172.14077493 -0.34591272 173.96768439 -0.35764539 C183.15909713 -0.4138624 192.10531765 -0.07080547 201.20329285 1.31816101 C201.96305965 1.4324529 202.72282645 1.54674478 203.50561649 1.66450006 C211.61274332 3.03813287 218.73703791 6.25593806 226 10 C227.06863281 10.52464844 228.13726563 11.04929687 229.23828125 11.58984375 C245.64026714 20.29076752 256.63624283 35.53731053 263.02734375 52.671875 C265.24450311 60.25829981 266.2987961 67.54138048 266.2746582 75.43432617 C266.2823246 76.76099808 266.2823246 76.76099808 266.29014587 78.11447144 C266.30392332 81.00737482 266.30309356 83.90003667 266.30078125 86.79296875 C266.30467571 88.82782579 266.30901191 90.86268202 266.31376648 92.89753723 C266.32120406 97.15315388 266.32095608 101.40868754 266.31567383 105.66430664 C266.30989371 111.07936059 266.32678712 116.49407087 266.3500185 121.90906811 C266.36485696 126.11049844 266.36561369 130.31184804 266.36250877 134.51329994 C266.36301729 136.50770051 266.36816523 138.50210617 266.37832069 140.49648094 C266.44235445 154.83317978 266.35165247 169.38038717 259.3125 182.3125 C258.96437256 182.97636719 258.61624512 183.64023437 258.25756836 184.32421875 C249.59476919 200.34465058 235.86686138 211.60100156 219.125 218.4375 C218.4944873 218.6967627 217.86397461 218.95602539 217.21435547 219.22314453 C213.63844356 220.61022846 210.80517629 221.11081855 207 221 C207.34554932 221.54076172 207.69109863 222.08152344 208.04711914 222.63867188 C215.60034074 234.46606268 223.09738647 246.32641304 230.52490234 258.2331543 C236.31404279 267.51158811 242.15068103 276.75942618 248 286 C255.40551636 297.6990065 262.77479502 309.41970709 270.10083008 321.16870117 C270.70950928 322.14427979 271.31818848 323.1198584 271.9453125 324.125 C272.48687988 324.99382812 273.02844727 325.86265625 273.58642578 326.7578125 C274.69848374 328.52174002 275.84333195 330.26499792 277 332 C277 341.57 277 351.14 277 361 C254.56 361 232.12 361 209 361 C198.625 340.6875 198.625 340.6875 195.42041016 334.40893555 C190.11025162 324.01580761 184.73744266 313.6591182 179.28662109 303.33911133 C175.98301987 297.08074009 172.74214379 290.79038473 169.5 284.5 C165.29870168 276.36027551 161.08734398 268.22642469 156.8125 260.125 C151.17436597 249.4345121 145.59064339 238.71539982 140 228 C115.91 227.67 91.82 227.34 67 227 C67 271.22 67 315.44 67 361 C44.89 361 22.78 361 0 361 C0 241.87 0 122.74 0 0 Z " transform="translate(1868,255)" style="fill: #A974FF;"/><path d="M0 0 C29.37 0 58.74 0 89 0 C99.44618589 30.71051079 99.44618589 30.71051079 103.13720703 41.63427734 C103.39598326 42.40013806 103.65475949 43.16599878 103.92137742 43.9550674 C111.56268026 66.58001918 119.10555859 89.23791982 126.65234375 111.89453125 C127.0199017 112.99791383 127.38745965 114.10129642 127.76615572 115.23811483 C133.49256782 132.42870091 139.21535487 149.62049322 144.9375 166.8125 C149.94817136 181.86682006 154.95939647 196.92095484 159.97356421 211.97411078 C161.77770493 217.39061027 163.58123721 222.80731046 165.38313103 228.22455788 C172.13459079 248.52173168 178.90291514 268.81291794 185.79618561 289.06245935 C186.39419466 290.81934027 186.99146649 292.57647235 187.58791721 294.33388293 C191.70456113 306.4825395 191.70456113 306.4825395 196.38278103 318.42376423 C202.01258247 334.10506452 200 341.41072379 200 361 C177.56 361 155.12 361 132 361 C124.4375 335.9375 124.4375 335.9375 122.09936523 328.18725586 C121.46077504 326.07145173 120.82218455 323.95564769 120.18359375 321.83984375 C119.83944931 320.698535 119.49530487 319.55722626 119.14073181 318.3813324 C117.41022924 312.64750733 115.6705274 306.91677599 113.91064453 301.19189453 C113.58363052 300.1260463 113.25661652 299.06019806 112.91969299 297.96205139 C112.30209362 295.95141293 111.68219702 293.94147824 111.05967712 291.93235779 C110.78740799 291.04532669 110.51513885 290.15829559 110.23461914 289.24438477 C109.99505997 288.46909927 109.75550079 287.69381378 109.50868225 286.89503479 C109 285 109 285 109 283 C66.43 283.33 23.86 283.66 -20 284 C-23.609375 295.9625 -27.21875 307.925 -30.9375 320.25 C-32.07695068 324.02469727 -33.21640137 327.79939453 -34.39038086 331.68847656 C-35.41236469 335.07732419 -35.41236469 335.07732419 -36.43409729 338.46624756 C-36.88870613 339.97367653 -37.34368787 341.48099308 -37.79896545 342.98822021 C-38.48917181 345.27345785 -39.1781879 347.55905129 -39.86694336 349.84472656 C-40.06944922 350.51422459 -40.27195509 351.18372261 -40.4805975 351.87350845 C-41.39280824 354.90499324 -42.23179541 357.92718165 -43 361 C-65.44 361 -87.88 361 -111 361 C-111 326.50446224 -111 326.50446224 -104.9296875 309.82421875 C-104.28661113 307.94886402 -103.64765932 306.07209073 -103.01248169 304.19404602 C-101.3514244 299.31782155 -99.63723394 294.46213143 -97.90917969 289.60931396 C-96.2049388 284.79441101 -94.55169574 279.96212194 -92.89453125 275.13085938 C-90.7059681 268.7655334 -88.50215539 262.40617587 -86.26515484 256.05770874 C-74.88497954 223.74607506 -64.03573963 191.25076996 -53.22553897 158.74507928 C-51.54231981 153.6851752 -49.85701399 148.62596621 -48.17189026 143.56669617 C-43.92526492 130.81590593 -39.68125266 118.06424657 -35.4375 105.3125 C-30.82001088 91.43785834 -26.20200862 77.56338842 -21.581101 63.68988484 C-19.59075242 57.71390408 -17.60185889 51.7374418 -15.61414421 45.76058447 C-14.37915852 42.04812034 -13.14290392 38.33607965 -11.90632057 34.62414742 C-11.33863947 32.91924854 -10.77147192 31.21417856 -10.20488739 29.50891495 C-9.42495691 27.1617827 -8.64309871 24.81530037 -7.86082458 22.46894836 C-7.53513722 21.48649382 -7.53513722 21.48649382 -7.20287031 20.48419172 C-4.90815106 13.61454782 -2.4379917 6.82637676 0 0 Z " transform="translate(1613,255)" style="fill: #A974FF;"/><path d="M0 0 C22.11 0 44.22 0 67 0 C67 49.17 67 98.34 67 149 C111.22 149 155.44 149 201 149 C201 99.83 201 50.66 201 0 C223.11 0 245.22 0 268 0 C268 119.13 268 238.26 268 361 C245.89 361 223.78 361 201 361 C201 309.85 201 258.7 201 206 C156.78 206 112.56 206 67 206 C67 257.15 67 308.3 67 361 C44.89 361 22.78 361 0 361 C0 241.87 0 122.74 0 0 Z " transform="translate(872,255)" style="fill: #A974FF;"/><path d="M0 0 C81.84 0 163.68 0 248 0 C248 39 248 39 241.33837891 50.32763672 C227.91056894 60.79806826 211.4549694 59.30216349 195.26046705 58.82509089 C190.74068332 58.71139472 186.22060855 58.70190451 181.69961548 58.68063354 C173.16648336 58.62501938 164.63757751 58.47779586 156.10629427 58.29634273 C144.55894603 58.05615294 133.01041485 57.96009681 121.46119308 57.85530281 C103.30430557 57.68680791 85.15632978 57.32805325 67 57 C67 87.36 67 117.72 67 149 C110.56 149 154.12 149 199 149 C199 167.81 199 186.62 199 206 C155.44 206 111.88 206 67 206 C67 238.34 67 270.68 67 304 C126.73 304 186.46 304 248 304 C248 322.81 248 341.62 248 361 C166.16 361 84.32 361 0 361 C0 241.87 0 122.74 0 0 Z " transform="translate(1225,255)" style="fill: #A974FF;"/><path d="M0 0 C112.81584582 0 112.81584582 0 125 10 C135.06955068 21.1735846 135.4441054 32.83860029 135.40405273 47.07324219 C135.40976143 48.90567439 135.41672761 50.73810303 135.42485046 52.57052612 C135.44274516 57.52943716 135.44162001 62.48817087 135.43590808 67.44710445 C135.43280983 71.59684171 135.43891599 75.74654522 135.44494683 79.89627767 C135.45897935 89.69325031 135.45744232 99.49013574 135.44604492 109.28710938 C135.43457442 119.36923181 135.44862438 129.4510879 135.4754414 139.53317523 C135.49765117 148.21036479 135.50422362 156.88747107 135.49836498 165.56468701 C135.49500568 170.73777726 135.49734155 175.91069697 135.51461601 181.08376312 C135.53016655 185.95290079 135.52604023 190.82164655 135.50731087 195.6907692 C135.50364684 197.46880396 135.50666898 199.24686827 135.51719666 201.02487564 C135.5901986 214.38332456 134.96040557 227.92431196 125 238 C94.81345901 265.90953897 17.49272054 248 0 248 C0 166.16 0 84.32 0 0 Z " transform="translate(2275,311)" style="fill: #FEFEFF;"/><path d="M0 0 C16.231875 -0.0825 32.46375 -0.165 49.1875 -0.25 C56.84102661 -0.30462402 56.84102661 -0.30462402 64.64916992 -0.36035156 C70.93811035 -0.37841797 70.93811035 -0.37841797 73.89350891 -0.3817749 C75.93297326 -0.38786866 77.9724243 -0.40183489 80.01179504 -0.42230225 C108.20235793 -0.69078508 108.20235793 -0.69078508 119 8 C120.010625 8.7425 121.02125 9.485 122.0625 10.25 C127.85817601 15.19381812 131.56205025 22.39015535 132.28088379 29.95657349 C132.29453979 30.99071381 132.3081958 32.02485413 132.32226562 33.09033203 C132.34148071 34.27241241 132.3606958 35.4544928 132.38049316 36.6723938 C132.38899292 37.93808197 132.39749268 39.20377014 132.40625 40.5078125 C132.41765015 41.82482147 132.42905029 43.14183044 132.4407959 44.49874878 C132.46174573 47.28433763 132.47347514 50.06981234 132.48046875 52.85546875 C132.49139325 56.39267994 132.5393733 59.92833373 132.59641266 63.46505928 C132.6340209 66.214082 132.64409525 68.96274379 132.6471405 71.7120018 C132.65599362 73.63949295 132.69311632 75.5667894 132.7310791 77.493927 C132.67940473 87.83357092 129.68671483 96.01351916 122.875 103.875 C112.93435656 112.86786591 101.77088976 114.16464129 89.00390625 114.11352539 C88.02163559 114.11364593 87.03936493 114.11376646 86.02732849 114.11389065 C82.87236199 114.11314892 79.71745582 114.1055546 76.5625 114.09765625 C74.604818 114.09618454 72.6471356 114.09516524 70.68945312 114.09460449 C63.45962939 114.08937818 56.22981409 114.07541691 49 114.0625 C32.83 114.041875 16.66 114.02125 0 114 C0 76.38 0 38.76 0 0 Z " transform="translate(1935,311)" style="fill: #FEFEFF;"/><path d="M0 0 C1.2065625 0.0309375 1.2065625 0.0309375 2.4375 0.0625 C4.45333968 5.31462962 6.27988055 10.5674526 7.90185547 15.95288086 C8.24159393 17.06947083 8.24159393 17.06947083 8.5881958 18.20861816 C9.32954168 20.64743781 10.06716715 23.08736478 10.8046875 25.52734375 C11.32630018 27.24644661 11.84812409 28.96548538 12.37014771 30.6844635 C13.46270365 34.28403769 14.55356989 37.88411778 15.64306641 41.48461914 C17.02465536 46.05037046 18.40908435 50.61525366 19.79464531 55.17980099 C21.13231687 59.5870149 22.46856251 63.99466077 23.8046875 68.40234375 C24.05256893 69.21968428 24.30045036 70.0370248 24.55584335 70.87913322 C27.54240709 80.73075834 30.49057675 90.59252967 33.38308716 100.47219849 C34.70963961 104.98914202 36.07142857 109.49490205 37.4375 114 C39.59668552 121.15238925 41.66303761 128.32459455 43.61328125 135.53686523 C45.40234953 142.1039195 47.43105608 148.54155724 49.4375 155.0625 C16.7675 155.0625 -15.9025 155.0625 -49.5625 155.0625 C-48.5725 151.7625 -47.5825 148.4625 -46.5625 145.0625 C-45.6634835 141.80618045 -45.6634835 141.80618045 -44.77539062 138.546875 C-42.70439111 130.89587347 -40.37681544 123.40687266 -37.8125 115.90625 C-36.40007336 111.66897008 -35.22947092 107.37268271 -34.0625 103.0625 C-32.57232955 97.56180464 -30.97062945 92.14537043 -29.125 86.75 C-27.22509036 81.18811451 -25.54055422 75.59956021 -23.953125 69.94140625 C-20.37813888 57.32203691 -16.64714243 44.74981539 -12.90161133 32.18017578 C-11.92580514 28.905086 -10.95415893 25.62877603 -9.98333263 22.35220718 C-9.04768474 19.1975107 -8.10753732 16.0441556 -7.16796875 12.890625 C-6.82009811 11.71485901 -6.47222748 10.53909302 -6.11381531 9.32769775 C-5.79290421 8.25437195 -5.4719931 7.18104614 -5.14135742 6.07519531 C-4.85967209 5.12815735 -4.57798676 4.18111938 -4.2877655 3.2053833 C-3.22955339 0.07876959 -3.22955339 0.07876959 0 0 Z " transform="translate(1657.5625,326.9375)" style="fill: #FEFDFF;"/><path d="M0 0 C4.61351434 3.35453017 8.53059837 6.78024685 11 12 C11.37010278 14.69687296 11.57199328 17.05770465 11.5625 19.75 C11.56008301 20.45866211 11.55766602 21.16732422 11.55517578 21.89746094 C11.32928017 28.34951201 9.54773351 32.4937037 5 37 C-1.04380703 41.81037702 -6.51199381 43.5332818 -14.1484375 43.37890625 C-20.1186362 42.58560587 -24.91204207 39.53262219 -28.875 35.0625 C-33.7767449 27.99822059 -35.15004337 22.59215093 -34 14 C-31.35360502 5.95054861 -25.69352732 1.58144002 -18.5 -2.375 C-11.89696062 -4.02575984 -5.92150474 -3.26427244 0 0 Z " transform="translate(181,758)" style="fill: #AA76FF;"/></svg>