<svg id="Capa_1" data-name="Capa 1" xmlns="http://www.w3.org/2000/svg" viewBox="0 0 1481 1661"><title>Mesa de trabajo 28</title><polygon points="240 1281 246 456 1418 828 1176 1337 240 1281"/><polygon points="295 1381.9 1328 1148.71 1046.38 315.1 304.01 651.93 295 1381.9" fill="#8964fe"/><polygon points="727.18 628.12 675.28 630.31 685.02 561.63 688.6 536.4 709.84 535.01 711.42 543.47 727.18 628.12" fill="#f6f4e7"/><polygon points="711.42 543.47 685.02 561.63 688.6 536.4 709.84 535.01 711.42 543.47"/><circle cx="700.74" cy="494.53" r="43.13" fill="#f6f4e7"/><path d="M794,439a54,54,0,0,1-78.54,48.11,61.12,61.12,0,0,1-38.93,35.33,44,44,0,1,1-66.31-21.81,61,61,0,0,1,82.39-87.54A54,54,0,0,1,794,439Z"/><polygon points="1186 789 1137 873 858 803.96 858 1105 567 1105 567 605 858 605 1186 789" fill="#fcc75f"/><path d="M1013.07,1134.26a155.67,155.67,0,0,1-36.74,41.65,222.47,222.47,0,0,1-21.6,183.74c-63.83,105.33-201,139-306.29,75.15s-139-201-75.15-306.28a222.51,222.51,0,0,1,152.87-104.21,156.11,156.11,0,1,1,286.91,110Z" fill="#fd612e"/><path d="M840.06,1167.77a100.8,100.8,0,1,1-43.13-26.28l393.72-649.77,43.19,26.17Z"/><path d="M799.68,1265.47l105.49,33.77-106.7-51,96.91,2.58-108.75-40,67.48-11.68-118-9.46-25.42-25.25a552.73,552.73,0,0,1-35.85,71.24l48.29,32.17,135.82,101.3-67.83-81.33,101,46.06Z" fill="#f6f4e7"/><path d="M683.13,624.26C663.39,605.71,602.2,605.49,584,604c-22-1.8-30.94,4.36-48,19-16.44,14.11-21.25,18.64-33.24,36.58-26.29,39.33-50.48,79.78-77.14,118.85-18,26.41-36.24,52.63-54.36,79-5,7.33-86.8,124.3-86,124.93l395.6,299.27,43.23-109.27L523.54,925.69c-7.45-9.17,58.25-85.12,65.16-94.78Q632.1,770.18,671,706.38C684.76,683.81,708,647.63,683.13,624.26Z" fill="#fcc75f"/><polygon points="723.27 1175.43 692 1253 735 1187 723.27 1175.43"/><polygon points="1169.43 781.59 1115 711 1106 732 1048.06 699.36 1099 753 1034.44 727.96 1088 775 1020.07 748.48 1081 791 1011 783 1111.32 818.44 1134.88 831.74 1169.43 781.59" fill="#f6f4e7"/><rect x="1129.97" y="725.54" width="95" height="183.3" transform="translate(499.21 -445.43) rotate(26.99)" fill="#fcc75f"/><circle cx="498" cy="467" r="15"/><circle cx="1123" cy="387" r="11"/><circle cx="1287" cy="665" r="15"/><circle cx="237" cy="1341" r="9"/><circle cx="503" cy="1371" r="10"/><circle cx="1071" cy="1382" r="11"/><circle cx="325" cy="424" r="15"/><rect x="1124.29" y="490.67" width="169.67" height="5.12" transform="matrix(0.86, 0.52, -0.52, 0.86, 430.63, -555.2)"/><rect x="1111.29" y="522.67" width="169.67" height="5.12" transform="matrix(0.86, 0.52, -0.52, 0.86, 445.33, -543.83)"/><rect x="1089.29" y="554.67" width="169.67" height="5.12" transform="matrix(0.86, 0.52, -0.52, 0.86, 458.73, -527.8)"/><rect x="1141.99" y="440.66" width="18.24" height="33.12" transform="translate(163.54 1204.76) rotate(-58.79)" fill="#fd612e"/><rect x="1122.99" y="470.66" width="18.24" height="33.12" transform="translate(128.73 1202.96) rotate(-58.79)" fill="#fd612e"/><rect x="1102.99" y="500.66" width="18.24" height="33.12" transform="translate(93.44 1200.31) rotate(-58.79)" fill="#fd612e"/><rect x="1272.99" y="521.66" width="18.24" height="33.12" transform="translate(157.38 1355.82) rotate(-58.79)" fill="#fd612e"/><rect x="1253.99" y="551.66" width="18.24" height="33.12" transform="translate(122.57 1354.02) rotate(-58.79)" fill="#fd612e"/><rect x="1233.99" y="581.66" width="18.24" height="33.12" transform="translate(87.28 1351.37) rotate(-58.79)" fill="#fd612e"/><rect x="1121.08" y="487.71" width="136" height="102" transform="translate(112.14 1276.49) rotate(-58.79)" fill="#fd612e"/><path d="M566,858c-1.87-3.13.73,120,.73,120l69.15,83.41s49.09-31.69,91.61-37.07C727.49,1024.39,599.16,913.36,566,858Z"/><path d="M504,300s299-1,235-82S516,358,619,361,962,240,870,228,709,394,812,374s230-142,160-120S863,469,983,449" fill="none" stroke="#fd612e" stroke-miterlimit="10" stroke-width="4"/><polygon points="311.5 590.5 458.5 626.5 414.5 768.5 315.5 770.5 337.5 687.5 387.5 674.5 311.5 590.5" fill="none" stroke="#fff" stroke-miterlimit="10" stroke-width="4"/><polygon points="284.5 1216.5 414.5 1159.5 489.5 1252.5 324.5 1274.5 284.5 1216.5" fill="none" stroke="#fff" stroke-miterlimit="10" stroke-width="4"/><polygon points="840.5 547.5 990.5 391.5 1050.5 475.5 1003.5 540.5 951.5 509.5 900.5 573.5 840.5 547.5" fill="none" stroke="#fff" stroke-miterlimit="10" stroke-width="4"/><path d="M1330.5,909.5s-223,97-195,261-3,311-150,305" fill="none" stroke="#fd612e" stroke-miterlimit="10" stroke-width="4"/><polygon points="402.5 304.5 376.5 541.5 487.5 385.5 402.5 304.5" fill="#fd612e"/><polygon points="160 1177 370 1102 225 1256 160 1177" fill="#fd612e"/><polygon points="1225 1033 1198 1202 1345 1241 1367 1072 1225 1033" fill="#fcc75f"/><polygon points="190 843 361 822 212 933 190 843" fill="#fcc75f"/><path d="M314,283S158,353,188,569" fill="none" stroke="#fd612e" stroke-miterlimit="10" stroke-width="4"/></svg>